<svg width="36" height="36" viewBox="0 0 36 36" fill="none" xmlns="http://www.w3.org/2000/svg">
<path d="M18.0009 0.54541C13.2607 0.54541 12.6658 0.566138 10.804 0.650865C8.94588 0.735956 7.67756 1.03014 6.56777 1.46177C5.41981 1.90759 4.44602 2.50396 3.47587 3.4745C2.50499 4.44468 1.90864 5.4185 1.46138 6.56614C1.02867 7.67632 0.734132 8.94505 0.650498 10.8025C0.567228 12.6643 0.54541 13.2596 0.54541 18C0.54541 22.7403 0.566501 23.3334 0.650862 25.1952C0.736314 27.0534 1.03049 28.3218 1.46175 29.4316C1.90791 30.5796 2.50426 31.5534 3.47478 32.5236C4.44456 33.4945 5.41835 34.0923 6.56559 34.5381C7.6761 34.9698 8.94479 35.264 10.8026 35.349C12.6643 35.4338 13.2588 35.4545 17.9987 35.4545C22.7393 35.4545 23.3324 35.4338 25.1941 35.349C27.0522 35.264 28.322 34.9698 29.4325 34.5381C30.5801 34.0923 31.5525 33.4945 32.5223 32.5236C33.4931 31.5534 34.0895 30.5796 34.5367 29.432C34.9658 28.3218 35.2604 27.053 35.3476 25.1956C35.4313 23.3338 35.4531 22.7403 35.4531 18C35.4531 13.2596 35.4313 12.6647 35.3476 10.8029C35.2604 8.94468 34.9658 7.67632 34.5367 6.5665C34.0895 5.4185 33.4931 4.44468 32.5223 3.4745C31.5514 2.50359 30.5805 1.90723 29.4314 1.46177C28.3188 1.03014 27.0497 0.735956 25.1916 0.650865C23.3298 0.566138 22.7371 0.54541 17.9954 0.54541H18.0009ZM16.4351 3.69086C16.8998 3.69014 17.4184 3.69086 18.0009 3.69086C22.6611 3.69086 23.2135 3.70759 25.0538 3.79123C26.7555 3.86905 27.6791 4.15341 28.2944 4.39232C29.1089 4.70868 29.6896 5.08686 30.3001 5.69777C30.911 6.30868 31.2892 6.8905 31.6063 7.70505C31.8452 8.31959 32.1299 9.24323 32.2074 10.945C32.291 12.785 32.3092 13.3378 32.3092 17.996C32.3092 22.6541 32.291 23.2069 32.2074 25.0469C32.1295 26.7487 31.8452 27.6723 31.6063 28.2869C31.2899 29.1014 30.911 29.6814 30.3001 30.292C29.6893 30.9029 29.1093 31.281 28.2944 31.5974C27.6799 31.8374 26.7555 32.121 25.0538 32.1989C23.2138 32.2825 22.6611 32.3007 18.0009 32.3007C13.3403 32.3007 12.7879 32.2825 10.948 32.1989C9.24624 32.1203 8.32263 31.836 7.70701 31.597C6.89249 31.2807 6.31069 30.9025 5.6998 30.2916C5.08891 29.6807 4.71074 29.1003 4.39366 28.2854C4.15476 27.6709 3.87004 26.7472 3.79258 25.0454C3.70895 23.2054 3.69222 22.6527 3.69222 17.9916C3.69222 13.3305 3.70895 12.7807 3.79258 10.9407C3.8704 9.23886 4.15476 8.31523 4.39366 7.69995C4.71001 6.88541 5.08891 6.30359 5.6998 5.69268C6.31069 5.08177 6.89249 4.70359 7.70701 4.3865C8.32227 4.1465 9.24624 3.86286 10.948 3.78468C12.5581 3.71196 13.1821 3.69014 16.4351 3.6865V3.69086ZM27.3177 6.58905C26.1614 6.58905 25.2232 7.52614 25.2232 8.68286C25.2232 9.83923 26.1614 10.7774 27.3177 10.7774C28.474 10.7774 29.4122 9.83923 29.4122 8.68286C29.4122 7.5265 28.474 6.58832 27.3177 6.58832V6.58905ZM18.0009 9.03632C13.0508 9.03632 9.03752 13.0498 9.03752 18C9.03752 22.9501 13.0508 26.9618 18.0009 26.9618C22.9509 26.9618 26.9628 22.9501 26.9628 18C26.9628 13.0498 22.9505 9.03632 18.0005 9.03632H18.0009ZM18.0009 12.1818C21.2139 12.1818 23.8189 14.7865 23.8189 18C23.8189 21.213 21.2139 23.8181 18.0009 23.8181C14.7875 23.8181 12.1829 21.213 12.1829 18C12.1829 14.7865 14.7875 12.1818 18.0009 12.1818Z" fill="#574242"/>
</svg>
