<svg width="30" height="32" viewBox="0 0 30 32" fill="none" xmlns="http://www.w3.org/2000/svg">
<path d="M10.9796 26.5179C13.6496 26.5179 15.8141 24.6063 15.8141 21.6834V0H21.612C21.2867 3.95446 25.2179 7.77436 29.5532 7.687V13.1389C25.8456 13.1389 22.6928 11.5712 21.5954 10.7012V21.6834C21.5954 26.5179 17.7923 32 10.9796 32C4.16697 32 0.446777 26.5179 0.446777 21.6834C0.446777 14.86 7.66765 10.9027 12.4502 11.8699V17.4231C12.2096 17.338 11.5891 17.2121 11.0607 17.2121C8.3685 17.1129 6.14518 19.2964 6.14518 21.6834C6.14518 24.3534 8.30963 26.5179 10.9796 26.5179Z" fill="#574242"/>
</svg>
