<svg width="30" height="30" viewBox="0 0 30 30" fill="none" xmlns="http://www.w3.org/2000/svg">
<path d="M14.0799 8.09431C13.7263 7.67004 13.0958 7.61271 12.6715 7.96628C12.2472 8.31984 12.1899 8.9504 12.5434 9.37468L14.0799 8.09431ZM18.2835 14.7008L19.0518 15.3409C19.3608 14.9701 19.3608 14.4314 19.0518 14.0606L18.2835 14.7008ZM12.5434 20.0268C12.1899 20.4511 12.2472 21.0817 12.6715 21.4352C13.0958 21.7888 13.7263 21.7315 14.0799 21.3072L12.5434 20.0268ZM12.5434 9.37468L17.5153 15.3409L19.0518 14.0606L14.0799 8.09431L12.5434 9.37468ZM17.5153 14.0606L12.5434 20.0268L14.0799 21.3072L19.0518 15.3409L17.5153 14.0606ZM15 2.5C21.9036 2.5 27.5 8.09644 27.5 15L29.5 15C29.5 6.99187 23.0081 0.5 15 0.5L15 2.5ZM27.5 15C27.5 21.9036 21.9036 27.5 15 27.5L15 29.5C23.0081 29.5 29.5 23.0081 29.5 15L27.5 15ZM15 27.5C8.09644 27.5 2.5 21.9036 2.5 15L0.5 15C0.5 23.0081 6.99187 29.5 15 29.5L15 27.5ZM2.5 15C2.5 8.09644 8.09644 2.5 15 2.5L15 0.5C6.99187 0.5 0.5 6.99187 0.5 15L2.5 15Z" fill="white"/>
</svg>
