<svg width="284" height="48" viewBox="0 0 284 48" fill="none" xmlns="http://www.w3.org/2000/svg">
<path fill-rule="evenodd" clip-rule="evenodd" d="M6 24C6 32.9 12.5 40.3 21 41.8L21.1003 41.7197C21.0669 41.7133 21.0334 41.7067 21 41.7V29H16.5V24H21V20C21 15.5 23.9 13 28 13C29.3 13 30.7 13.2 32 13.4V18H29.7C27.5 18 27 19.1 27 20.5V24H31.8L31 29H27V41.7C26.9666 41.7067 26.9331 41.7133 26.8997 41.7197L27 41.8C35.5 40.3 42 32.9 42 24C42 14.1 33.9 6 24 6C14.1 6 6 14.1 6 24Z" fill="#574242"/>
<path fill-rule="evenodd" clip-rule="evenodd" d="M98.5432 16.1778C98.5568 16.5275 98.5613 16.8772 98.5613 17.2269C98.5613 27.8313 91.1016 40.0735 77.4605 40.0735C73.2701 40.0735 69.3737 38.738 66.0908 36.4645C66.6711 36.528 67.2605 36.5758 67.8589 36.5758C71.3333 36.5758 74.5333 35.2878 77.0716 33.1256C73.8264 33.0779 71.0861 30.7408 70.141 27.561C70.5947 27.6564 71.0619 27.7043 71.5397 27.7043C72.2135 27.7043 72.8677 27.609 73.4947 27.4182C70.0987 26.6869 67.5409 23.4436 67.5409 19.5485C67.5409 19.5008 67.5409 19.4848 67.5409 19.453C68.5417 20.0412 69.6873 20.4067 70.9037 20.4544C68.911 19.0076 67.6011 16.5434 67.6011 13.7611C67.6011 12.2984 67.9659 10.9152 68.608 9.72281C72.2647 14.5878 77.7318 17.7835 83.8952 18.1173C83.7686 17.5291 83.7038 16.9092 83.7038 16.2892C83.7038 11.8534 87.0244 8.26025 91.1212 8.26025C93.2541 8.26025 95.1804 9.23021 96.5325 10.7883C98.2252 10.4385 99.8109 9.77081 101.246 8.84869C100.69 10.7247 99.5154 12.2984 97.981 13.2841C99.4823 13.0933 100.914 12.6644 102.242 12.0284C101.246 13.6342 99.9918 15.0489 98.5432 16.1778Z" fill="#574242"/>
<path d="M142.001 6.54541C137.261 6.54541 136.666 6.56614 134.804 6.65087C132.946 6.73596 131.678 7.03014 130.568 7.46177C129.42 7.90759 128.446 8.50396 127.476 9.4745C126.505 10.4447 125.909 11.4185 125.461 12.5661C125.029 13.6763 124.734 14.945 124.65 16.8025C124.567 18.6643 124.545 19.2596 124.545 24C124.545 28.7403 124.567 29.3334 124.651 31.1952C124.736 33.0534 125.03 34.3218 125.462 35.4316C125.908 36.5796 126.504 37.5534 127.475 38.5236C128.445 39.4945 129.418 40.0923 130.566 40.5381C131.676 40.9698 132.945 41.264 134.803 41.349C136.664 41.4338 137.259 41.4545 141.999 41.4545C146.739 41.4545 147.332 41.4338 149.194 41.349C151.052 41.264 152.322 40.9698 153.433 40.5381C154.58 40.0923 155.552 39.4945 156.522 38.5236C157.493 37.5534 158.089 36.5796 158.537 35.432C158.966 34.3218 159.26 33.053 159.348 31.1956C159.431 29.3338 159.453 28.7403 159.453 24C159.453 19.2596 159.431 18.6647 159.348 16.8029C159.26 14.9447 158.966 13.6763 158.537 12.5665C158.089 11.4185 157.493 10.4447 156.522 9.4745C155.551 8.50359 154.581 7.90723 153.431 7.46177C152.319 7.03014 151.05 6.73596 149.192 6.65087C147.33 6.56614 146.737 6.54541 141.995 6.54541H142.001ZM140.435 9.69086C140.9 9.69014 141.418 9.69086 142.001 9.69086C146.661 9.69086 147.213 9.70759 149.054 9.79123C150.756 9.86905 151.679 10.1534 152.294 10.3923C153.109 10.7087 153.69 11.0869 154.3 11.6978C154.911 12.3087 155.289 12.8905 155.606 13.705C155.845 14.3196 156.13 15.2432 156.207 16.945C156.291 18.785 156.309 19.3378 156.309 23.996C156.309 28.6541 156.291 29.2069 156.207 31.0469C156.13 32.7487 155.845 33.6723 155.606 34.2869C155.29 35.1014 154.911 35.6814 154.3 36.292C153.689 36.9029 153.109 37.281 152.294 37.5974C151.68 37.8374 150.756 38.121 149.054 38.1989C147.214 38.2825 146.661 38.3007 142.001 38.3007C137.34 38.3007 136.788 38.2825 134.948 38.1989C133.246 38.1203 132.323 37.836 131.707 37.597C130.892 37.2807 130.311 36.9025 129.7 36.2916C129.089 35.6807 128.711 35.1003 128.394 34.2854C128.155 33.6709 127.87 32.7472 127.793 31.0454C127.709 29.2054 127.692 28.6527 127.692 23.9916C127.692 19.3305 127.709 18.7807 127.793 16.9407C127.87 15.2389 128.155 14.3152 128.394 13.7C128.71 12.8854 129.089 12.3036 129.7 11.6927C130.311 11.0818 130.892 10.7036 131.707 10.3865C132.322 10.1465 133.246 9.86286 134.948 9.78468C136.558 9.71196 137.182 9.69014 140.435 9.6865V9.69086ZM151.318 12.589C150.161 12.589 149.223 13.5261 149.223 14.6829C149.223 15.8392 150.161 16.7774 151.318 16.7774C152.474 16.7774 153.412 15.8392 153.412 14.6829C153.412 13.5265 152.474 12.5883 151.318 12.5883V12.589ZM142.001 15.0363C137.051 15.0363 133.038 19.0498 133.038 24C133.038 28.9501 137.051 32.9618 142.001 32.9618C146.951 32.9618 150.963 28.9501 150.963 24C150.963 19.0498 146.951 15.0363 142.001 15.0363H142.001ZM142.001 18.1818C145.214 18.1818 147.819 20.7865 147.819 24C147.819 27.213 145.214 29.8181 142.001 29.8181C138.788 29.8181 136.183 27.213 136.183 24C136.183 20.7865 138.788 18.1818 142.001 18.1818Z" fill="#574242"/>
<path fill-rule="evenodd" clip-rule="evenodd" d="M216.846 10.2424C218.581 10.7094 219.949 12.0772 220.416 13.812C221.283 16.9812 221.25 23.5866 221.25 23.5866C221.25 23.5866 221.25 30.1587 220.416 33.3279C219.949 35.0627 218.581 36.4305 216.846 36.8975C213.677 37.7316 201 37.7316 201 37.7316C201 37.7316 188.356 37.7316 185.154 36.8642C183.419 36.3971 182.051 35.0293 181.584 33.2946C180.75 30.1587 180.75 23.5533 180.75 23.5533C180.75 23.5533 180.75 16.9812 181.584 13.812C182.051 12.0772 183.452 10.6761 185.154 10.209C188.323 9.375 201 9.375 201 9.375C201 9.375 213.677 9.375 216.846 10.2424ZM207.505 23.3216L196.963 29.3933V17.25L207.505 23.3216Z" fill="#574242"/>
<path d="M255.98 34.5179C258.65 34.5179 260.814 32.6063 260.814 29.6834V8H266.612C266.287 11.9545 270.218 15.7744 274.553 15.687V21.1389C270.846 21.1389 267.693 19.5712 266.595 18.7012V29.6834C266.595 34.5179 262.792 40 255.98 40C249.167 40 245.447 34.5179 245.447 29.6834C245.447 22.86 252.668 18.9027 257.45 19.8699V25.4231C257.21 25.338 256.589 25.2121 256.061 25.2121C253.368 25.1129 251.145 27.2964 251.145 29.6834C251.145 32.3534 253.31 34.5179 255.98 34.5179Z" fill="#574242"/>
</svg>
