<svg width="37" height="33" viewBox="0 0 37 33" fill="none" xmlns="http://www.w3.org/2000/svg">
<path fill-rule="evenodd" clip-rule="evenodd" d="M32.5432 8.17775C32.5568 8.52752 32.5613 8.87715 32.5613 9.22692C32.5613 19.8313 25.1016 32.0735 11.4605 32.0735C7.27015 32.0735 3.37375 30.738 0.0908203 28.4645C0.671135 28.528 1.2605 28.5758 1.8589 28.5758C5.33326 28.5758 8.53328 27.2878 11.0716 25.1256C7.82635 25.0779 5.08607 22.7408 4.14099 19.561C4.59469 19.6564 5.06192 19.7043 5.53974 19.7043C6.21351 19.7043 6.86768 19.609 7.49472 19.4182C4.09874 18.6869 1.54086 15.4436 1.54086 11.5485C1.54086 11.5008 1.54086 11.4848 1.54086 11.453C2.54172 12.0412 3.68726 12.4067 4.90366 12.4544C2.91099 11.0076 1.60112 8.54339 1.60112 5.76113C1.60112 4.29845 1.96589 2.9152 2.60801 1.72281C6.26474 6.58779 11.7318 9.78347 17.8952 10.1173C17.7686 9.52909 17.7038 8.9092 17.7038 8.28915C17.7038 3.85343 21.0244 0.260254 25.1212 0.260254C27.2541 0.260254 29.1804 1.23021 30.5325 2.78828C32.2252 2.43851 33.8109 1.77081 35.2459 0.84869C34.6897 2.72473 33.5154 4.29837 31.981 5.28409C33.4823 5.09331 34.9143 4.66437 36.2422 4.02842C35.2459 5.63419 33.9918 7.04895 32.5432 8.17775Z" fill="#574242"/>
</svg>
