<svg width="42" height="29" viewBox="0 0 42 29" fill="none" xmlns="http://www.w3.org/2000/svg">
<path fill-rule="evenodd" clip-rule="evenodd" d="M36.8462 1.24238C38.581 1.70943 39.9488 3.07721 40.4158 4.81197C41.2832 7.98123 41.2498 14.5866 41.2498 14.5866C41.2498 14.5866 41.2498 21.1587 40.4158 24.3279C39.9488 26.0627 38.581 27.4305 36.8462 27.8975C33.677 28.7316 20.9999 28.7316 20.9999 28.7316C20.9999 28.7316 8.35623 28.7316 5.15361 27.8642C3.41885 27.3971 2.05107 26.0293 1.58402 24.2946C0.75 21.1587 0.75 14.5533 0.75 14.5533C0.75 14.5533 0.75 7.98123 1.58402 4.81197C2.05107 3.07721 3.45221 1.67607 5.15361 1.20902C8.32287 0.375 20.9999 0.375 20.9999 0.375C20.9999 0.375 33.677 0.375 36.8462 1.24238ZM27.5052 14.3216L16.9632 20.3933V8.25L27.5052 14.3216Z" fill="#574242"/>
</svg>
